<svg width="15" height="14" viewBox="0 0 15 14" fill="none" xmlns="http://www.w3.org/2000/svg">
<mask id="mask0_0_166" style="mask-type:luminance" maskUnits="userSpaceOnUse" x="0" y="0" width="15" height="14">
<path fill-rule="evenodd" clip-rule="evenodd" d="M0 0H14.3964V13.7132H0V0Z" fill="white"/>
</mask>
<g mask="url(#mask0_0_166)">
<path fill-rule="evenodd" clip-rule="evenodd" d="M1.2839 6.41407C2.26979 9.48145 6.16484 11.9616 7.19996 12.5755C8.23859 11.9553 12.1618 9.44769 13.116 6.41688C13.7426 4.45775 13.161 1.97614 10.8503 1.23145C9.73079 0.872112 8.42494 1.09081 7.52343 1.78839C7.33498 1.93325 7.07338 1.93606 6.88352 1.79261C5.92857 1.07464 4.68108 0.864377 3.544 1.23145C1.23679 1.97544 0.657345 4.45705 1.2839 6.41407ZM7.19938 13.7126C7.11218 13.7126 7.02569 13.6915 6.94693 13.6486C6.72683 13.5283 1.5421 10.6705 0.278439 6.73678C0.277735 6.73678 0.277735 6.73608 0.277735 6.73608C-0.51548 4.25939 0.367746 1.14701 3.21924 0.227923C4.55814 -0.205251 6.01729 -0.014683 7.19727 0.730011C8.34068 0.00711637 9.8596 -0.192594 11.1718 0.227923C14.0261 1.14842 14.9121 4.2601 14.1196 6.73608C12.8967 10.6248 7.67404 13.5255 7.45253 13.6472C7.37377 13.6908 7.28658 13.7126 7.19938 13.7126Z" fill="#B8B8B8"/>
</g>
<path fill-rule="evenodd" clip-rule="evenodd" d="M11.3584 5.36215C11.0862 5.36215 10.8556 5.15329 10.8331 4.87764C10.7867 4.2996 10.3999 3.81158 9.84931 3.63367C9.57155 3.54366 9.41965 3.2462 9.50896 2.96984C9.59967 2.69278 9.89432 2.5423 10.1728 2.62949C11.1313 2.93961 11.8028 3.78837 11.8851 4.79185C11.9083 5.08227 11.6924 5.33683 11.402 5.36004C11.3872 5.36144 11.3732 5.36215 11.3584 5.36215Z" fill="#B8B8B8"/>
</svg>
