<svg width="17" height="14" viewBox="0 0 17 14" fill="none" xmlns="http://www.w3.org/2000/svg">
<path d="M9.55829 0.862366V2.67698" stroke="#B8B8B8" stroke-width="1.34971" stroke-linecap="round" stroke-linejoin="round"/>
<path d="M9.55829 10.9924V12.5101" stroke="#B8B8B8" stroke-width="1.34971" stroke-linecap="round" stroke-linejoin="round"/>
<path d="M9.55829 8.41497V4.79999" stroke="#B8B8B8" stroke-width="1.34971" stroke-linecap="round" stroke-linejoin="round"/>
<path fill-rule="evenodd" clip-rule="evenodd" d="M13.1988 12.6723C14.5651 12.6723 15.6717 11.5795 15.6717 10.2302V8.28623C14.7676 8.28623 14.0395 7.56719 14.0395 6.67437C14.0395 5.78155 14.7676 5.06173 15.6717 5.06173L15.6709 3.11699C15.6709 1.76772 14.5635 0.674866 13.198 0.674866H3.14852C1.78304 0.674866 0.67564 1.76772 0.67564 3.11699L0.674858 5.12506C1.57892 5.12506 2.30702 5.78155 2.30702 6.67437C2.30702 7.56719 1.57892 8.28623 0.674858 8.28623V10.2302C0.674858 11.5795 1.78148 12.6723 3.14774 12.6723H13.1988Z" stroke="#B8B8B8" stroke-width="1.34971" stroke-linecap="round" stroke-linejoin="round"/>
</svg>
