<svg width="32" height="24" viewBox="0 0 32 24" fill="none" xmlns="http://www.w3.org/2000/svg">
<path d="M15.7622 16C17.7872 16 19.4288 17.6417 19.4288 19.6667C19.4288 21.6917 17.7872 23.3334 15.7622 23.3334C13.7371 23.3334 12.0955 21.6917 12.0955 19.6667C12.0955 17.6417 13.7371 16 15.7622 16ZM15.7622 18C14.8417 18 14.0955 18.7462 14.0955 19.6667C14.0955 20.5872 14.8417 21.3334 15.7622 21.3334C16.6826 21.3334 17.4288 20.5872 17.4288 19.6667C17.4288 18.7462 16.6826 18 15.7622 18ZM15.7623 10.6668C19.2791 10.6668 22.3248 12.6839 23.8055 15.6243L22.2912 17.137C21.277 14.5214 18.7362 12.6668 15.7623 12.6668C12.7883 12.6668 10.2476 14.5214 9.23336 17.137L7.71954 15.6233C9.20045 12.6835 12.2459 10.6668 15.7623 10.6668ZM15.7624 5.3336C20.7428 5.3336 25.13 7.87381 27.699 11.7293L26.2519 13.1767C24.0772 9.66943 20.1926 7.3336 15.7624 7.3336C11.3322 7.3336 7.44755 9.66943 5.27287 13.1767L3.82578 11.7293C6.39473 7.87381 10.7819 5.3336 15.7624 5.3336ZM15.7622 0C22.2132 0 27.9388 3.10604 31.5251 7.90421L30.0946 9.3352C26.8859 4.89177 21.6618 2 15.7622 2C9.86302 2 4.63919 4.89134 1.43047 9.33419L0 7.90321C3.5863 3.10561 9.31156 0 15.7622 0Z" fill="#B8B8B8"/>
</svg>
